<svg xmlns="http://www.w3.org/2000/svg" xmlns:xlink="http://www.w3.org/1999/xlink" width="512" height="512" viewBox="0 0 32 32">
  <defs>
    <rect id="logo-a" width="32" height="32"/>
  </defs>
  <g fill="none" fill-rule="evenodd">
    <mask id="logo-b" fill="#fff">
      <use xlink:href="#logo-a"/>
    </mask>
    <use fill="#FFF" fill-rule="nonzero" opacity="0" xlink:href="#logo-a"/>
    <path fill="#2F495E" fill-rule="nonzero" d="M17.7888544,14.8944272 L30.2111456,21.1055728 C30.7051241,21.3525621 30.9053485,21.9532351 30.6583592,22.4472136 C30.5615955,22.640741 30.404673,22.7976635 30.2111456,22.8944272 L17.7888544,29.1055728 C16.6627444,29.6686278 15.3372556,29.6686278 14.2111456,29.1055728 L1.78885438,22.8944272 C1.29487588,22.6474379 1.09465154,22.0467649 1.34164079,21.5527864 C1.43840449,21.359259 1.59532698,21.2023365 1.78885438,21.1055728 L14.2111456,14.8944272 C15.3372556,14.3313722 16.6627444,14.3313722 17.7888544,14.8944272 Z" mask="url(#logo-b)"/>
    <path fill="#108775" fill-rule="nonzero" d="M17.7888544,8.89442719 L30.2111456,15.1055728 C30.7051241,15.3525621 30.9053485,15.9532351 30.6583592,16.4472136 C30.5615955,16.640741 30.404673,16.7976635 30.2111456,16.8944272 L17.7888544,23.1055728 C16.6627444,23.6686278 15.3372556,23.6686278 14.2111456,23.1055728 L1.78885438,16.8944272 C1.29487588,16.6474379 1.09465154,16.0467649 1.34164079,15.5527864 C1.43840449,15.359259 1.59532698,15.2023365 1.78885438,15.1055728 L14.2111456,8.89442719 C15.3372556,8.33137221 16.6627444,8.33137221 17.7888544,8.89442719 Z" mask="url(#logo-b)"/>
    <path fill="#00C58E" fill-rule="nonzero" d="M17.7888544,2.89442719 L30.2111456,9.10557281 C30.7051241,9.35256206 30.9053485,9.9532351 30.6583592,10.4472136 C30.5615955,10.640741 30.404673,10.7976635 30.2111456,10.8944272 L17.7888544,17.1055728 C16.6627444,17.6686278 15.3372556,17.6686278 14.2111456,17.1055728 L1.78885438,10.8944272 C1.29487588,10.6474379 1.09465154,10.0467649 1.34164079,9.5527864 C1.43840449,9.359259 1.59532698,9.20233651 1.78885438,9.10557281 L14.2111456,2.89442719 C15.3372556,2.33137221 16.6627444,2.33137221 17.7888544,2.89442719 Z" mask="url(#logo-b)"/>
  </g>
</svg>
