<svg xmlns="http://www.w3.org/2000/svg" xmlns:xlink="http://www.w3.org/1999/xlink" width="32" height="32" viewBox="0 0 32 32">
  <defs>
    <rect id="logo-a" width="32" height="32"/>
  </defs>
  <g fill="none" fill-rule="evenodd">
    <mask id="logo-b" fill="#fff">
      <use xlink:href="#logo-a"/>
    </mask>
    <use fill="#FFF" fill-rule="nonzero" opacity="0" xlink:href="#logo-a"/>
    <path fill="#2F495E" fill-rule="nonzero" d="M17.7888544,17.8944272 L26.2111456,22.1055728 C26.7051241,22.3525621 26.9053485,22.9532351 26.6583592,23.4472136 C26.5615955,23.640741 26.404673,23.7976635 26.2111456,23.8944272 L17.7888544,28.1055728 C16.6627444,28.6686278 15.3372556,28.6686278 14.2111456,28.1055728 L5.78885438,23.8944272 C5.29487588,23.6474379 5.09465154,23.0467649 5.34164079,22.5527864 C5.43840449,22.359259 5.59532698,22.2023365 5.78885438,22.1055728 L14.2111456,17.8944272 C15.3372556,17.3313722 16.6627444,17.3313722 17.7888544,17.8944272 Z" mask="url(#logo-b)"/>
    <path fill="#108775" fill-rule="nonzero" d="M17.7888544,10.8944272 L28.2111456,16.1055728 C28.7051241,16.3525621 28.9053485,16.9532351 28.6583592,17.4472136 C28.5615955,17.640741 28.404673,17.7976635 28.2111456,17.8944272 L17.7888544,23.1055728 C16.6627444,23.6686278 15.3372556,23.6686278 14.2111456,23.1055728 L3.78885438,17.8944272 C3.29487588,17.6474379 3.09465154,17.0467649 3.34164079,16.5527864 C3.43840449,16.359259 3.59532698,16.2023365 3.78885438,16.1055728 L14.2111456,10.8944272 C15.3372556,10.3313722 16.6627444,10.3313722 17.7888544,10.8944272 Z" mask="url(#logo-b)"/>
    <path fill="#00C58E" fill-rule="nonzero" d="M17.7888544,3.89442719 L30.2111456,10.1055728 C30.7051241,10.3525621 30.9053485,10.9532351 30.6583592,11.4472136 C30.5615955,11.640741 30.404673,11.7976635 30.2111456,11.8944272 L17.7888544,18.1055728 C16.6627444,18.6686278 15.3372556,18.6686278 14.2111456,18.1055728 L1.78885438,11.8944272 C1.29487588,11.6474379 1.09465154,11.0467649 1.34164079,10.5527864 C1.43840449,10.359259 1.59532698,10.2023365 1.78885438,10.1055728 L14.2111456,3.89442719 C15.3372556,3.33137221 16.6627444,3.33137221 17.7888544,3.89442719 Z" mask="url(#logo-b)"/>
  </g>
</svg>
